#!OML:ASF H:\Male1\Project 1\Capture day 1\Session 1\Male1.ASF
:FULLY-SPECIFIED
:DEGREES
161
root 33.4363 15.2511 1.1903 -4.64983 108.003 -2.66002
lowerback 4.81299 6.93255 4.61189
upperback 3.03589 9.53781 -2.42089
thorax 1.63714 4.9469 -5.2725
lowerneck 9.0066 18.2987 23.0704
upperneck 2.58282 26.8282 -12.4125
head 4.02276 13.7092 -5.76751
rclavicle -4.27884e-014 1.39149e-014
rhumerus -53.8406 -3.83845 -82.0121
rradius 57.1431
rwrist -36.6392
rhand -32.2813 4.10297
rfingers 7.12502
rthumb -5.5203 -25.8051
lclavicle -4.27884e-014 1.39149e-014
lhumerus -28.8792 -4.98424 80.941
lradius 38.7899
lwrist 4.14049
lhand -20.3308 6.15374
lfingers 7.12502
lthumb 6.02047 36.0482
rfemur -7.13114 14.8405 26.0266
rtibia 33.6924
rfoot -43.083 -33.2072
rtoes -2.00295
lfemur -13.1593 -24.0928 -20.2007
ltibia 34.4367
lfoot -21.1614 9.49359
ltoes -13.7168
162
root 33.4285 15.2523 1.18111 -4.51846 107.971 -2.50738
lowerback 4.77745 6.98977 4.62893
upperback 3.01217 9.61048 -2.35875
thorax 1.63322 4.98064 -5.21453
lowerneck 9.18161 18.5075 23.1212
upperneck 2.63059 27.1569 -12.4099
head 4.07121 13.8785 -5.73505
rclavicle 6.13251e-014 -9.74045e-015
rhumerus -53.6715 -3.94132 -81.8321
rradius 56.4316
rwrist -36.8417
rhand -32.1704 4.56007
rfingers 7.12502
rthumb -5.41328 -25.3508
lclavicle 6.13251e-014 -9.74045e-015
lhumerus -28.839 -4.91236 80.7492
lradius 37.2964
lwrist 3.1701
lhand -19.9062 6.14094
lfingers 7.12502
lthumb 6.43039 36.0233
rfemur -7.10196 14.5926 26.0053
rtibia 33.6678
rfoot -43.0469 -32.8814
rtoes -1.68404
lfemur -13.1494 -24.5198 -20.2247
ltibia 34.4818
lfoot -21.2679 10.0259
ltoes -14.1543
163
root 33.4212 15.2496 1.17203 -4.22581 107.975 -2.14539
lowerback 4.80566 7.09501 4.79693
upperback 2.99165 9.75703 -2.31747
thorax 1.63635 5.05577 -5.26632
lowerneck 9.19446 18.6997 23.1125
upperneck 2.81043 27.422 -12.2105
head 4.13735 14.0125 -5.63011
rclavicle -9.86469e-015 6.36111e-015
rhumerus -53.5801 -4.27941 -81.6038
rradius 55.7241
rwrist -36.8301
rhand -32.3846 4.82445
rfingers 7.12502
rthumb -5.62011 -25.081
lclavicle -9.86469e-015 6.36111e-015
lhumerus -28.7421 -5.08833 80.6052
lradius 35.7004
lwrist 2.24607
lhand -19.6123 6.29666
lfingers 7.12502
lthumb 6.7141 36.1702
rfemur -7.04043 14.3899 26.0783
rtibia 33.6624
rfoot -42.864 -32.8266
rtoes -1.61429
lfemur -13.1298 -24.6189 -20.1516
ltibia 34.5209
lfoot -21.5305 10.0013
ltoes -13.6233
164
root 33.4157 15.2464 1.16432 -3.96973 108.035 -1.88382
lowerback 4.78964 7.22522 4.98769
upperback 2.94483 9.93741 -2.35045
thorax 1.65934 5.14973 -5.40102
lowerneck 9.24332 18.7791 23.1618
upperneck 2.77477 27.5358 -12.1319
head 4.13169 14.0694 -5.60208
rclavicle -5.53118e-014 3.97569e-016
rhumerus -53.557 -4.89934 -81.325
rradius 55.0392
rwrist -36.513
rhand -32.6714 5.25103
rfingers 7.12502
rthumb -5.89701 -24.6469
lclavicle -5.53118e-014 3.97569e-016
lhumerus -28.5666 -5.28875 80.3992
lradius 33.9939
lwrist 1.25029
lhand -19.4367 6.85351
lfingers 7.12502
lthumb 6.88364 36.7216
rfemur -7.01921 14.3453 26.1287
rtibia 33.6182
rfoot -42.8064 -32.8833
rtoes -1.45653
lfemur -13.1637 -24.7381 -20.0863
ltibia 34.5297
lfoot -21.8118 9.9366
ltoes -13.346
165
root 33.4104 15.2445 1.15621 -4.50969 108.02 -2.44991
lowerback 4.80361 7.41519 4.93836
upperback 2.93177 10.1923 -2.41703
thorax 1.67586 5.27884 -5.44276
lowerneck 9.27614 18.7719 23.0702
upperneck 2.55356 27.5062 -12.1656
head 4.04659 14.05 -5.62371
rclavicle 2.37299e-014 -1.59028e-015
rhumerus -53.5102 -5.54921 -80.9332
rradius 54.2904
rwrist -36.1723
rhand -32.5665 4.91321
rfingers 7.12502
rthumb -5.79567 -24.9875
lclavicle 2.37299e-014 -1.59028e-015
lhumerus -28.3279 -5.51641 80.3001
lradius 32.2698
lwrist 0.433409
lhand -19.2681 7.54333
lfingers 7.12502
lthumb 7.04635 37.406
rfemur -7.07011 14.3325 25.8918
rtibia 33.7012
rfoot -42.789 -32.7894
rtoes -1.29607
lfemur -13.1207 -24.8414 -20.323
ltibia 34.4708
lfoot -21.6095 10.1639
ltoes -14.7214
166
root 33.4065 15.2442 1.14772 -4.22741 107.962 -2.05081
lowerback 4.88412 7.52575 5.10192
upperback 2.96292 10.3479 -2.29868
thorax 1.69171 5.3589 -5.41592
lowerneck 9.22345 18.9121 22.4232
upperneck 2.30414 27.571 -11.6953
head 3.83415 14.0669 -5.44424
rclavicle 1.84124e-013 -1.64991e-014
rhumerus -53.3585 -5.83364 -80.5547
rradius 53.4132
rwrist -35.874
rhand -32.4313 4.5439
rfingers 7.12502
rthumb -5.66517 -25.3604
lclavicle 1.84124e-013 -1.64991e-014
lhumerus -28.1505 -5.27878 80.191
lradius 30.5153
lwrist -0.428222
lhand -18.9692 7.80417
lfingers 7.12502
lthumb 7.33484 37.657
rfemur -7.01074 14.255 25.9933
rtibia 33.7469
rfoot -42.5771 -32.8224
rtoes -1.59789
lfemur -13.017 -24.587 -20.2432
ltibia 34.4552
lfoot -22.2504 10.567
ltoes -18.4746
167
root 33.4042 15.2476 1.13986 -5.31685 108.011 -3.36094
lowerback 4.67144 7.53004 4.62195
upperback 2.94193 10.3258 -2.34752
thorax 1.70663 5.33811 -5.18236
lowerneck 9.28187 19.0317 22.2071
upperneck 2.26749 27.7224 -11.6997
head 3.81095 14.141 -5.413
rclavicle 1.2424e-015 -1.21259e-014
rhumerus -53.125 -5.90502 -80.3048
rradius 52.4348
rwrist -35.4434
rhand -32.5516 5.43263
rfingers 7.12502
rthumb -5.78135 -24.4685
lclavicle 1.2424e-015 -1.21259e-014
lhumerus -28.0318 -4.2367 79.7516
lradius 28.6658
lwrist -1.86765
lhand -18.6124 7.97337
lfingers 7.12502
lthumb 7.67925 37.8139
rfemur -7.27118 14.1164 25.4285
rtibia 33.8454
rfoot -42.4733 -32.7582
rtoes -1.87943
lfemur -13.1624 -24.5412 -20.6476
ltibia 34.3771
lfoot -21.3382 10.406
ltoes -18.7622
168
root 33.4018 15.2477 1.13346 -4.55923 107.993 -2.59832
lowerback 4.62647 7.47008 4.81254
upperback 2.87833 10.246 -2.28567
thorax 1.67757 5.29621 -5.22002
lowerneck 9.45214 19.1159 22.4154
upperneck 2.20754 27.8927 -11.8403
head 3.84154 14.2312 -5.46222
rclavicle -1.21259e-014 -1.05356e-014
rhumerus -52.953 -5.9904 -80.2066
rradius 51.45
rwrist -34.8095
rhand -32.5557 6.05892
rfingers 7.12502
rthumb -5.78526 -23.8421
lclavicle -1.21259e-014 -1.05356e-014
lhumerus -27.9943 -2.95469 79.0745
lradius 26.9392
lwrist -3.37983
lhand -18.1862 8.44431
lfingers 7.12502
lthumb 8.0906 38.2694
rfemur -7.33928 14.1282 25.6464
rtibia 33.8892
rfoot -42.5731 -32.6552
rtoes -1.69
lfemur -13.183 -24.673 -20.4102
ltibia 34.3535
lfoot -22.1364 10.382
ltoes -16.9405
169
root 33.3993 15.2478 1.12847 -4.55266 108.022 -2.56711
lowerback 4.66475 7.43847 4.81884
upperback 2.85409 10.2052 -2.29831
thorax 1.62943 5.2741 -5.24473
lowerneck 9.46719 19.1299 22.3711
upperneck 2.13125 27.9046 -11.8491
head 3.81312 14.2355 -5.46509
rclavicle -1.00983e-013 2.38542e-015
rhumerus -52.8224 -6.1579 -80.1023
rradius 50.5519
rwrist -34.1195
rhand -32.486 6.4074
rfingers 7.12502
rthumb -5.71795 -23.4954
lclavicle -1.00983e-013 2.38542e-015
lhumerus -27.9015 -1.64236 78.4104
lradius 25.3288
lwrist -4.67464
lhand -17.7167 8.76553
lfingers 7.12502
lthumb 8.54376 38.5727
rfemur -7.36973 14.1533 25.638
rtibia 33.9945
rfoot -42.5996 -32.6089
rtoes -1.58348
lfemur -13.1234 -24.6265 -20.4295
ltibia 34.2772
lfoot -22.3244 10.183
ltoes -15.6521
170
root 33.3981 15.2479 1.12268 -4.8172 108.129 -2.8458
lowerback 4.68314 7.41946 4.75155
upperback 2.84725 10.1787 -2.32446
thorax 1.60163 5.25934 -5.23953
lowerneck 9.35632 19.1089 22.1824
upperneck 2.02657 27.8233 -11.8066
head 3.75386 14.1876 -5.44497
rclavicle -9.85475e-014 2.5842e-014
rhumerus -52.7299 -6.37867 -79.8925
rradius 49.8071
rwrist -33.5082
rhand -32.37 6.54457
rfingers 7.12502
rthumb -5.60593 -23.3613
lclavicle -9.85475e-014 2.5842e-014
lhumerus -27.7798 -0.160872 77.7616
lradius 23.7389
lwrist -5.94906
lhand -17.5114 8.80131
lfingers 7.12502
lthumb 8.74187 38.6003
rfemur -7.41303 14.1207 25.5004
rtibia 34.0633
rfoot -42.519 -32.7965
rtoes -2.13758
lfemur -13.1039 -24.5738 -20.5551
ltibia 34.2229
lfoot -22.2304 10.1095
ltoes -16.0395
